<?xml version="1.0" standalone="no"?>
<!DOCTYPE svg PUBLIC "-//W3C//DTD SVG 20010904//EN"
 "http://www.w3.org/TR/2001/REC-SVG-20010904/DTD/svg10.dtd">
<svg version="1.0" xmlns="http://www.w3.org/2000/svg"
 width="1162.000000pt" height="774.000000pt" viewBox="0 0 1162.000000 774.000000"
 preserveAspectRatio="xMidYMid meet">
<metadata>
Created by potrace 1.11, written by Peter Selinger 2001-2013
</metadata>
<g transform="translate(0.000000,774.000000) scale(0.100000,-0.100000)"
fill="#000000" stroke="none">
<path d="M7416 2973 c-3 -3 -6 -57 -6 -120 l0 -113 -30 0 c-23 0 -30 -4 -30
-20 0 -16 -7 -20 -30 -20 -23 0 -30 -4 -30 -20 0 -18 -7 -20 -70 -20 l-70 0 0
-30 c0 -16 5 -30 10 -30 6 0 10 -118 10 -335 l0 -335 -25 0 c-16 0 -25 -6 -25
-15 0 -12 -17 -15 -90 -15 l-90 0 0 -50 c0 -49 1 -50 30 -50 l30 0 0 -865 0
-865 -30 0 c-28 0 -30 -3 -30 -35 l0 -35 480 0 480 0 0 35 c0 31 -3 35 -25 35
l-25 0 0 865 0 865 25 0 c23 0 25 3 25 50 l0 50 -90 0 c-73 0 -90 3 -90 15 0
9 -9 15 -25 15 l-25 0 0 335 c0 217 4 335 10 335 6 0 10 14 10 30 l0 30 -70 0
c-63 0 -70 2 -70 20 0 16 -7 20 -30 20 -23 0 -30 4 -30 20 0 15 -7 20 -25 20
l-25 0 0 114 c0 105 -6 136 -24 119z"/>
<path d="M3750 2403 c-10 -12 -11 -18 -2 -21 17 -5 16 -42 -9 -457 l-22 -360
-38 -40 c-37 -38 -39 -44 -39 -103 0 -55 -2 -62 -20 -62 -19 0 -20 -7 -20
-219 l0 -219 -140 -188 -139 -189 -1 -237 0 -238 -25 0 c-22 0 -25 -4 -25 -35
l0 -35 855 0 855 0 0 35 c0 32 -2 35 -30 35 l-30 0 0 280 0 280 40 0 c22 0 40
3 40 8 -1 6 -340 251 -360 260 -3 1 -30 -16 -60 -38 -51 -38 -55 -39 -62 -20
-6 15 -16 20 -48 20 l-40 0 0 -54 0 -55 -82 -58 -83 -58 48 -3 47 -3 0 -280 0
-279 -70 0 -70 0 0 240 0 240 -140 202 -140 203 0 202 c0 170 -2 203 -14 203
-11 0 -17 19 -22 70 -6 64 -10 73 -40 98 l-34 28 -26 408 c-20 325 -23 410
-13 416 9 6 9 12 -4 24 -19 19 -18 19 -37 -1z m83 -1714 c38 -46 2 -129 -57
-129 -39 0 -79 41 -79 80 0 71 90 103 136 49z m857 -524 l0 -95 -50 0 -50 0 0
95 0 95 50 0 50 0 0 -95z"/>
<path d="M8960 2025 c0 -22 -4 -25 -40 -25 l-40 0 0 -50 c0 -47 2 -50 25 -50
l25 0 0 -915 c0 -807 -2 -915 -15 -915 -13 0 -15 100 -15 840 l0 840 -65 0
-65 0 0 30 c0 30 -1 30 -55 30 l-55 0 0 35 c0 33 -2 35 -35 35 -33 0 -35 -2
-35 -35 0 -32 -2 -35 -30 -35 -27 0 -30 -3 -30 -30 l0 -30 -193 0 -194 0 -6
-307 c-4 -170 -7 -548 -7 -840 0 -467 -2 -533 -15 -533 -10 0 -15 -11 -15 -35
l0 -35 820 0 820 0 0 35 c0 28 -4 35 -20 35 -20 0 -20 7 -20 915 l0 915 25 0
c23 0 25 3 25 50 l0 50 -205 0 -205 0 0 25 0 25 -190 0 -190 0 0 -25z m640
-355 l0 -40 -285 0 -285 0 0 40 0 40 285 0 285 0 0 -40z m-1130 -330 l0 -40
-120 0 -120 0 0 40 0 40 120 0 120 0 0 -40z m1130 0 l0 -40 -285 0 -285 0 0
40 0 40 285 0 285 0 0 -40z m-960 -160 l0 -40 -125 0 -125 0 0 40 0 40 125 0
125 0 0 -40z m800 0 l0 -40 -125 0 -125 0 0 40 0 40 125 0 125 0 0 -40z m160
-160 l0 -40 -285 0 -285 0 0 40 0 40 285 0 285 0 0 -40z m-800 -170 l0 -40
-120 0 -120 0 0 40 0 40 120 0 120 0 0 -40z m800 0 l0 -40 -120 0 -120 0 0 40
0 40 120 0 120 0 0 -40z m-800 -160 l0 -40 -285 0 -285 0 0 40 0 40 285 0 285
0 0 -40z m800 0 l0 -40 -285 0 -285 0 0 40 0 40 285 0 285 0 0 -40z m-1130
-330 l0 -40 -120 0 -120 0 0 40 0 40 120 0 120 0 0 -40z m1130 0 l0 -40 -285
0 -285 0 0 40 0 40 285 0 285 0 0 -40z"/>
<path d="M2480 1929 c-151 -60 -318 -126 -370 -147 l-95 -39 -3 -836 -2 -837
-25 0 c-22 0 -25 -4 -25 -35 l0 -35 555 0 555 0 0 35 c0 28 -4 35 -20 35 -20
0 -20 7 -20 790 0 443 -4 790 -9 790 -5 0 -63 23 -130 51 l-121 51 0 144 c0
79 -3 144 -7 143 -5 0 -132 -50 -283 -110z"/>
<path d="M5470 1925 c0 -22 -4 -25 -40 -25 l-40 0 0 -50 c0 -47 2 -50 25 -50
l25 0 0 -865 0 -865 -25 0 c-22 0 -25 -4 -25 -35 l0 -35 480 0 480 0 0 35 c0
32 -2 35 -30 35 l-30 0 0 865 0 865 25 0 c23 0 25 3 25 50 l0 50 -245 0 -245
0 0 25 0 25 -190 0 -190 0 0 -25z"/>
<path d="M10040 1925 c0 -23 -4 -25 -45 -25 l-45 0 0 -50 c0 -49 0 -50 32 -50
l31 0 -6 -412 c-4 -227 -7 -617 -7 -865 l0 -453 -25 0 c-22 0 -25 -4 -25 -35
l0 -35 700 0 700 0 0 35 c0 32 -2 35 -30 35 l-30 0 0 515 c0 508 0 515 20 515
24 0 24 -2 0 54 l-19 46 -221 0 -220 0 0 300 0 300 30 0 c29 0 30 1 30 50 l0
50 -250 0 -250 0 0 25 0 25 -185 0 -185 0 0 -25z m910 -1020 l0 -95 -45 0 -45
0 0 95 0 95 45 0 45 0 0 -95z m200 0 l0 -95 -45 0 -45 0 0 95 0 95 45 0 45 0
0 -95z m-200 -300 l0 -95 -45 0 -45 0 0 95 0 95 45 0 45 0 0 -95z m200 0 l0
-95 -45 0 -45 0 0 95 0 95 45 0 45 0 0 -95z m-200 -300 l0 -95 -45 0 -45 0 0
95 0 95 45 0 45 0 0 -95z m200 0 l0 -95 -45 0 -45 0 0 95 0 95 45 0 45 0 0
-95z"/>
<path d="M710 1225 c0 -23 -4 -25 -47 -25 -47 0 -48 -1 -65 -43 -23 -53 -22
-57 2 -57 20 0 20 -7 20 -515 0 -508 0 -515 -20 -515 -16 0 -20 -7 -20 -35 l0
-35 595 0 595 0 0 35 c0 28 -4 35 -20 35 -20 0 -20 7 -20 310 0 269 2 310 15
310 11 0 15 11 15 40 l0 40 -63 0 c-35 0 -119 3 -185 7 l-122 6 0 159 c0 151
1 158 20 158 24 0 24 -2 0 54 -19 45 -20 46 -65 46 -41 0 -45 2 -45 25 l0 25
-295 0 -295 0 0 -25z m140 -370 l0 -95 -45 0 -45 0 0 95 0 95 45 0 45 0 0 -95z
m200 0 l0 -95 -45 0 -45 0 0 95 0 95 45 0 45 0 0 -95z m200 0 l0 -95 -45 0
-45 0 0 95 0 95 45 0 45 0 0 -95z m-400 -300 l0 -95 -45 0 -45 0 0 95 0 95 45
0 45 0 0 -95z m200 0 l0 -95 -45 0 -45 0 0 95 0 95 45 0 45 0 0 -95z m200 0
l0 -95 -45 0 -45 0 0 95 0 95 45 0 45 0 0 -95z m-400 -300 l0 -95 -45 0 -45 0
0 95 0 95 45 0 45 0 0 -95z m200 0 l0 -95 -45 0 -45 0 0 95 0 95 45 0 45 0 0
-95z m200 0 l0 -95 -45 0 -45 0 0 95 0 95 45 0 45 0 0 -95z"/>
<path d="M6537 317 c-76 -56 -94 -73 -78 -75 20 -3 21 -10 21 -103 0 -81 -3
-99 -15 -99 -8 0 -15 -9 -15 -20 0 -19 7 -20 200 -20 193 0 200 1 200 20 0 11
-7 20 -15 20 -12 0 -15 18 -15 99 0 95 1 100 22 103 19 3 16 7 -20 32 -37 25
-42 33 -42 67 0 35 -3 39 -25 39 -19 0 -25 -5 -25 -21 0 -19 -1 -19 -33 5 -19
15 -40 26 -48 26 -8 -1 -58 -33 -112 -73z"/>
<path d="M402 192 c-27 -143 -27 -142 -2 -142 15 0 20 -7 20 -25 0 -14 5 -25
10 -25 6 0 10 11 10 25 0 18 5 25 20 25 13 0 20 7 20 18 -1 22 -47 232 -52
238 -3 2 -14 -49 -26 -114z"/>
<path d="M5041 196 c-26 -140 -26 -146 -1 -146 15 0 20 -7 20 -25 0 -14 5 -25
10 -25 6 0 10 11 10 25 0 18 5 25 20 25 11 0 20 6 20 13 0 18 -48 238 -53 243
-2 2 -14 -47 -26 -110z"/>
<path d="M232 167 c-12 -13 -22 -35 -22 -50 0 -26 30 -67 50 -67 6 0 10 -11
10 -25 0 -14 5 -25 10 -25 6 0 10 11 10 25 0 14 6 25 13 25 46 0 65 96 25 124
-32 23 -71 20 -96 -7z"/>
<path d="M5170 170 c-11 -11 -20 -33 -20 -50 0 -29 29 -70 50 -70 6 0 10 -11
10 -25 0 -14 5 -25 10 -25 6 0 10 11 10 25 0 14 5 25 10 25 21 0 50 41 50 70
0 38 -32 70 -70 70 -17 0 -39 -9 -50 -20z"/>
</g>
</svg>
